:FULLY-SPECIFIED
:FORCE-ALL-JOINTS-BE-3DOF
:DEGREES
81
root 9.27325 16.3498 -25.5806 4.1738 -7.81717 2.1865
lfemur -16.9073 2.90903 -26.905
ltibia 28.1867 0 0
lfoot -14.9443 9.42325 0
ltoes -0.891716 0 0
rfemur -21.8852 1.05981 18.7275
rtibia 60.4157 0 0
rfoot -16.5137 -12.2009 0
rtoes -11.1515 0 0
lowerback -5.06065 -1.08506 -3.67131
upperback -1.50176 -1.31993 2.61707
thorax 1.4371 -0.66469 4.69644
lowerneck -22.388 -3.9697 -11.6623
upperneck 19.607 -4.56004 12.0396
head 10.5521 -1.55185 5.60507
lclavicle -1.9817e-14 2.14841e-15 0
lhumerus -27.2382 -12.5603 87.0712
lradius 26.4646 0 0
lwrist 1.67871 0 0
lhand -9.5613 -22.7917 0
lfingers 7.12502 0 0
lthumb 16.4039 6.51008 0
rclavicle -1.9817e-14 2.14841e-15 0
rhumerus -43.8439 14.0894 -89.2852
rradius 40.6077 0 0
rwrist -21.9466 0 0
rhand -30.7132 -23.527 0
rfingers 7.12502 0 0
rthumb -4.00613 -53.4692 0
82
root 9.29842 16.3672 -25.4508 4.13365 -7.64289 2.35186
lfemur -16.1386 2.79653 -27.1235
ltibia 27.7832 0 0
lfoot -15.198 9.35969 0
ltoes -0.913005 0 0
rfemur -22.8136 1.09213 18.4525
rtibia 60.9731 0 0
rfoot -16.8014 -12.4084 0
rtoes -10.9769 0 0
lowerback -5.03822 -1.14892 -3.79494
upperback -1.50287 -1.3927 2.58914
thorax 1.43157 -0.702234 4.72857
lowerneck -22.3736 -3.97425 -11.6676
upperneck 19.6781 -4.56165 11.9917
head 10.5733 -1.55876 5.59028
lclavicle -1.98992e-14 2.73931e-15 0
lhumerus -27.0015 -12.7836 87.0949
lradius 26.6678 0 0
lwrist 1.80774 0 0
lhand -9.83677 -22.8927 0
lfingers 7.12502 0 0
lthumb 16.1398 6.44383 0
rclavicle -1.98992e-14 2.73931e-15 0
rhumerus -43.8428 13.9261 -89.1415
rradius 40.3037 0 0
rwrist -21.8362 0 0
rhand -30.7026 -23.3529 0
rfingers 7.12502 0 0
rthumb -3.99598 -53.2952 0
83
root 9.32359 16.3847 -25.3211 4.10147 -7.46086 2.50374
lfemur -15.3819 2.69433 -27.3161
ltibia 27.3581 0 0
lfoot -15.4155 9.28101 0
ltoes -0.941018 0 0
rfemur -23.6641 1.14515 18.1767
rtibia 61.3726 0 0
rfoot -17.074 -12.5931 0
rtoes -10.8607 0 0
lowerback -5.02824 -1.211 -3.90958
upperback -1.50296 -1.46382 2.56402
thorax 1.43427 -0.739042 4.75856
lowerneck -22.3555 -3.98132 -11.6757
upperneck 19.7455 -4.56661 11.9463
head 10.5931 -1.56725 5.5762
lclavicle -2.00524e-14 3.18055e-15 0
lhumerus -26.802 -13.014 87.1404
lradius 26.8783 0 0
lwrist 1.9389 0 0
lhand -10.0739 -22.9826 0
lfingers 7.12502 0 0
lthumb 15.9125 6.3837 0
rclavicle -2.00524e-14 3.18055e-15 0
rhumerus -43.8526 13.7666 -89.0045
rradius 40.0196 0 0
rwrist -21.7294 0 0
rhand -30.69 -23.203 0
rfingers 7.12502 0 0
rthumb -3.98376 -53.1455 0
84
root 9.32109 16.3757 -25.1921 4.07606 -7.26453 2.64775
lfemur -14.6117 2.59771 -27.491
ltibia 26.8864 0 0
lfoot -15.6096 9.18126 0
ltoes -0.976881 0 0
rfemur -24.467 1.22352 17.8889
rtibia 61.6224 0 0
rfoot -17.3396 -12.7627 0
rtoes -10.7966 0 0
lowerback -5.03091 -1.27358 -4.01978
upperback -1.50193 -1.53584 2.54041
thorax 1.44577 -0.776459 4.78728
lowerneck -22.3325 -3.9908 -11.6867
upperneck 19.8119 -4.5747 11.902
head 10.6122 -1.57743 5.56246
lclavicle -2.02789e-14 3.4818e-15 0
lhumerus -26.6296 -13.26 87.2078
lradius 27.1065 0 0
lwrist 2.07925 0 0
lhand -10.2851 -23.0664 0
lfingers 7.12502 0 0
lthumb 15.71 6.3263 0
rclavicle -2.02789e-14 3.4818e-15 0
rhumerus -43.8726 13.6059 -88.8689
rradius 39.7494 0 0
rwrist -21.6241 0 0
rhand -30.6759 -23.0714 0
rfingers 7.12502 0 0
rthumb -3.97013 -53.0141 0
85
root 9.3186 16.3666 -25.063 4.05584 -7.04805 2.78995
lfemur -13.8037 2.50165 -27.6574
ltibia 26.3467 0 0
lfoot -15.7946 9.05591 0
ltoes -1.02143 0 0
rfemur -25.2556 1.33025 17.5786
rtibia 61.7398 0 0
rfoot -17.6069 -12.9256 0
rtoes -10.7749 0 0
lowerback -5.04557 -1.3389 -4.1303
upperback -1.49976 -1.61125 2.51696
thorax 1.46603 -0.815782 4.81565
lowerneck -22.3039 -4.00243 -11.7006
upperneck 19.8799 -4.58555 11.8574
head 10.6312 -1.58932 5.54868
lclavicle -2.05759e-14 3.66233e-15 0
lhumerus -26.4727 -13.529 87.296
lradius 27.3616 0 0
lwrist 2.23531 0 0
lhand -10.4845 -23.1492 0
lfingers 7.12502 0 0
lthumb 15.5188 6.26809 0
rclavicle -2.05759e-14 3.66233e-15 0
rhumerus -43.9014 13.439 -88.7292
rradius 39.4861 0 0
rwrist -21.5183 0 0
rhand -30.6611 -22.951 0
rfingers 7.12502 0 0
rthumb -3.95583 -52.894 0
86
root 9.3161 16.3576 -24.934 4.04061 -6.81241 2.93019
lfemur -12.9606 2.40635 -27.8152
ltibia 25.7433 0 0
lfoot -15.9703 8.90645 0
ltoes -1.07437 0 0
rfemur -26.0297 1.46381 17.2475
rtibia 61.7309 0 0
rfoot -17.8752 -13.0816 0
rtoes -10.7936 0 0
lowerback -5.07159 -1.40675 -4.24093
upperback -1.49652 -1.68981 2.49368
thorax 1.49459 -0.856874 4.84364
lowerneck -22.2699 -4.01616 -11.7173
upperneck 19.9493 -4.59908 11.8126
head 10.6503 -1.60285 5.5349
lclavicle -2.09398e-14 3.72816e-15 0
lhumerus -26.3311 -13.8193 87.404
lradius 27.6421 0 0
lwrist 2.40615 0 0
lhand -10.6722 -23.2309 0
lfingers 7.12502 0 0
lthumb 15.3387 6.20924 0
rclavicle -2.09398e-14 3.72816e-15 0
rhumerus -43.9385 13.2663 -88.5858
rradius 39.2296 0 0
rwrist -21.4119 0 0
rhand -30.6456 -22.8416 0
rfingers 7.12502 0 0
rthumb -3.94088 -52.7848 0
